<?xml version="1.0" encoding="UTF-8" standalone="no"?>
<!-- Generator: Adobe Illustrator 22.0.1, SVG Export Plug-In . SVG Version: 6.00 Build 0)  -->

<svg
   xmlns:dc="http://purl.org/dc/elements/1.1/"
   xmlns:cc="http://creativecommons.org/ns#"
   xmlns:rdf="http://www.w3.org/1999/02/22-rdf-syntax-ns#"
   xmlns:svg="http://www.w3.org/2000/svg"
   xmlns="http://www.w3.org/2000/svg"
   xmlns:sodipodi="http://sodipodi.sourceforge.net/DTD/sodipodi-0.dtd"
   xmlns:inkscape="http://www.inkscape.org/namespaces/inkscape"
   version="1.1"
   id="Calque_1"
   x="0px"
   y="0px"
   viewBox="0 0 512 512"
   style="enable-background:new 0 0 512 512;"
   xml:space="preserve"
   sodipodi:docname="ic_profiles_Audio.svg"
   inkscape:version="0.92.3 (2405546, 2018-03-11)"
   inkscape:export-filename="C:\Den\Accessibilité\SP4_Société déficiente et IHM Innovantes\Tél mobile Universel\TelMultiprofils\Design graphique\Pictos\all_icons\ic_profiles\ic_profiles_Audio_Blanc.png"
   inkscape:export-xdpi="96"
   inkscape:export-ydpi="96"><metadata
   id="metadata23"><rdf:RDF><cc:Work
       rdf:about=""><dc:format>image/svg+xml</dc:format><dc:type
         rdf:resource="http://purl.org/dc/dcmitype/StillImage" /><dc:title>ic_profiles_partially_sighted_1_1</dc:title></cc:Work></rdf:RDF></metadata><defs
   id="defs21" /><sodipodi:namedview
   pagecolor="#ffffff"
   bordercolor="#666666"
   borderopacity="1"
   objecttolerance="10"
   gridtolerance="10"
   guidetolerance="10"
   inkscape:pageopacity="0"
   inkscape:pageshadow="2"
   inkscape:window-width="1920"
   inkscape:window-height="1058"
   id="namedview19"
   showgrid="false"
   inkscape:zoom="1.3037281"
   inkscape:cx="525.3735"
   inkscape:cy="297.51736"
   inkscape:window-x="1592"
   inkscape:window-y="-8"
   inkscape:window-maximized="1"
   inkscape:current-layer="g16" />
<title
   id="title2">ic_profiles_partially_sighted_1_1</title>
<g
   id="g16">
	
	
	
	
	
	
<path
   style="fill:#000013;stroke-width:1.28338337;fill-opacity:1;stroke:none"
   d="M 230.31626,513.16276 C 183.62294,508.2766 135.48277,488.78461 99.44382,460.17241 43.61254,415.8466 9.28169,352.95714 2.03457,281.73189 -4.63726,216.1606 15.34132,148.72553 57.01504,96.15254 99.56965,42.468276 163.08144,7.9185 232.05096,0.934756 326.05387,-8.58383 419.01594,36.64345 471.42948,117.39559 c 9.78109,15.06943 22.31568,41.54079 28.0764,59.29351 20.75183,63.95059 16.00932,133.2373 -13.21371,193.04817 -13.13275,26.87885 -25.51327,44.64136 -46.11198,66.15753 -54.15792,56.57009 -132.39304,85.3748 -209.86393,77.26796 z m 41.16501,-34.64833 c 40.31759,-3.09525 75.2537,-15.14943 108.70775,-37.508 19.23186,-12.85335 46.34069,-40.13457 59.11281,-59.48873 50.48697,-76.50509 50.48697,-172.36084 0,-248.86593 C 426.52971,113.29761 399.42088,86.01639 380.18902,73.16304 347.03201,51.003004 311.67585,38.72259 272.42423,35.732605 223.57284,32.011361 174.95379,45.054082 132.8957,73.16304 c -19.23185,12.85335 -46.34069,40.13457 -59.11282,59.48873 -50.48697,76.50509 -50.48697,172.36084 0,248.86593 12.77213,19.35416 39.88097,46.63538 59.11282,59.48873 32.34091,21.61461 69.03921,34.56383 106.07407,37.4289 7.20223,0.55718 13.67066,1.0941 14.37429,1.19318 0.70362,0.0991 8.86536,-0.40227 18.13721,-1.11408 z m -54.54635,-37.4418 c -10.09112,-1.77046 -19.07017,-7.26833 -24.16389,-14.79555 -3.885,-5.74103 -4.23393,-7.01677 -3.75623,-13.73316 0.60533,-8.51104 4.66242,-14.01758 12.1633,-16.50885 4.99505,-1.65899 8.22585,-0.63384 19.46798,6.17734 9.03351,5.47305 14.93226,5.54745 25.32833,0.31944 5.16088,-2.59533 10.73422,-7.05828 16.67749,-13.35478 10.39675,-11.01466 14.49076,-16.91751 32.09562,-46.27626 15.90387,-26.52208 20.83761,-33.05764 40.67238,-53.87727 25.8268,-27.10917 31.71881,-38.28327 35.05418,-66.47963 3.73183,-31.54804 -7.00796,-61.27571 -30.77783,-85.19273 -15.90705,-16.00554 -28.38773,-23.29883 -50.04632,-29.24542 -12.5459,-3.44461 -37.16563,-3.11211 -50.27695,0.679 -37.44716,10.82776 -69.20027,41.12639 -75.63156,72.16719 -2.48826,12.00963 -2.76769,12.57636 -7.08929,14.37781 -5.93899,2.47565 -24.6848,1.05743 -29.03092,-2.19635 -4.39812,-3.2927 -5.16717,-11.04699 -2.24573,-22.64333 4.44304,-17.63615 15.35353,-36.07872 31.24949,-52.82264 31.63235,-33.31975 75.70787,-52.06241 115.8825,-49.27783 54.87008,3.80314 98.03558,30.86399 120.2708,75.39886 10.90057,21.83277 15.25296,41.4753 15.26213,68.87898 0.0137,41.00555 -10.99648,65.86642 -46.14229,104.18854 -32.84585,35.81427 -34.98409,38.77264 -54.93594,76.00661 -9.72336,18.14566 -23.57511,32.96711 -36.60835,39.17118 -16.31816,7.76774 -38.89249,11.58749 -53.4189,9.03885 z m 84.66094,-186.22541 c -5.17931,-1.89368 -9.0394,-4.01174 -8.69113,-4.76887 13.55856,-29.47505 15.59175,-50.84949 6.12939,-64.43658 -8.95998,-12.86571 -31.42032,-17.9138 -46.19048,-10.3816 -6.58282,3.35697 -19.69485,15.34788 -25.10385,22.95736 l -2.54082,3.57449 -10.74057,-1.93794 c -5.90732,-1.06588 -11.00331,-2.20234 -11.32442,-2.52549 -1.12777,-1.13496 3.67644,-13.43304 7.54173,-19.30567 5.88247,-8.93737 17.10836,-18.32036 29.08656,-24.31152 10.0947,-5.04908 11.49206,-5.39308 23.76491,-5.85028 15.50711,-0.57768 24.65096,1.11199 35.51359,6.56244 31.16063,15.63525 40.8406,55.83615 22.29482,92.59037 -3.77658,7.48447 -6.16245,10.79375 -7.91424,10.9773 -1.37929,0.14453 -6.70076,-1.27027 -11.82549,-3.14401 z"
   id="path1411"
   inkscape:connector-curvature="0" /><path
   style="fill:none;stroke-width:1.28338337;fill-opacity:0"
   d="M 230.31626,513.16276 C 183.62294,508.2766 135.48277,488.78461 99.443816,460.17241 43.612544,415.8466 9.2816953,352.95714 2.0345739,281.73189 -4.6372593,216.1606 15.341321,148.72553 57.015045,96.152537 99.569655,42.468271 163.08144,7.9184955 232.05096,0.93475116 326.05387,-8.5838348 419.01594,36.643445 471.42948,117.39559 c 9.78109,15.06943 22.31568,41.54079 28.0764,59.29351 20.75183,63.95059 16.00932,133.2373 -13.21371,193.04817 -13.13275,26.87885 -25.51327,44.64136 -46.11198,66.15753 -54.15792,56.57009 -132.39304,85.3748 -209.86393,77.26796 z m 41.16501,-34.64833 c 40.31759,-3.09525 75.2537,-15.14943 108.70775,-37.508 19.23186,-12.85335 46.34069,-40.13457 59.11281,-59.48873 50.48697,-76.50509 50.48697,-172.36084 0,-248.86593 C 426.52971,113.29761 399.42088,86.016384 380.18902,73.163035 347.03201,51.002999 311.67585,38.722585 272.42423,35.7326 223.57284,32.011356 174.95379,45.054077 132.8957,73.163035 113.66385,86.016384 86.555011,113.29761 73.782885,132.65177 c -50.486973,76.50509 -50.486973,172.36084 0,248.86593 12.772126,19.35416 39.880965,46.63538 59.112815,59.48873 32.34091,21.61461 69.03921,34.56383 106.07407,37.4289 7.20223,0.55718 13.67066,1.0941 14.37429,1.19318 0.70362,0.0991 8.86536,-0.40227 18.13721,-1.11408 z m -54.54635,-37.4418 c -10.09112,-1.77046 -19.07017,-7.26833 -24.16389,-14.79555 -3.885,-5.74103 -4.23393,-7.01677 -3.75623,-13.73316 0.60533,-8.51104 4.66242,-14.01758 12.1633,-16.50885 4.99505,-1.65899 8.22585,-0.63384 19.46798,6.17734 9.03351,5.47305 14.93226,5.54745 25.32833,0.31944 5.16088,-2.59533 10.73422,-7.05828 16.67749,-13.35478 10.39675,-11.01466 14.49076,-16.91751 32.09562,-46.27626 15.90387,-26.52208 20.83761,-33.05764 40.67238,-53.87727 25.8268,-27.10917 31.71881,-38.28327 35.05418,-66.47963 3.73183,-31.54804 -7.00796,-61.27571 -30.77783,-85.19273 -15.90705,-16.00554 -28.38773,-23.29883 -50.04632,-29.24542 -12.5459,-3.44461 -37.16563,-3.11211 -50.27695,0.679 -37.44716,10.82776 -69.20027,41.12639 -75.63156,72.16719 -2.48826,12.00963 -2.76769,12.57636 -7.08929,14.37781 -5.93899,2.47565 -24.6848,1.05743 -29.03092,-2.19635 -4.39812,-3.2927 -5.16717,-11.04699 -2.24573,-22.64333 4.44304,-17.63615 15.35353,-36.07872 31.24949,-52.82264 31.63235,-33.319751 75.70787,-52.062415 115.8825,-49.277838 54.87008,3.803145 98.03558,30.863997 120.2708,75.398868 10.90057,21.83277 15.25296,41.4753 15.26213,68.87898 0.0137,41.00555 -10.99648,65.86642 -46.14229,104.18854 -32.84585,35.81427 -34.98409,38.77264 -54.93594,76.00661 -9.72336,18.14566 -23.57511,32.96711 -36.60835,39.17118 -16.31816,7.76774 -38.89249,11.58749 -53.4189,9.03885 z m 84.66094,-186.22541 c -5.17931,-1.89368 -9.0394,-4.01174 -8.69113,-4.76887 13.55856,-29.47505 15.59175,-50.84949 6.12939,-64.43658 -8.95998,-12.86571 -31.42032,-17.9138 -46.19048,-10.3816 -6.58282,3.35697 -19.69485,15.34788 -25.10385,22.95736 l -2.54082,3.57449 -10.74057,-1.93794 c -5.90732,-1.06588 -11.00331,-2.20234 -11.32442,-2.52549 -1.12777,-1.13496 3.67644,-13.43304 7.54173,-19.30567 5.88247,-8.93737 17.10836,-18.32036 29.08656,-24.31152 10.0947,-5.04908 11.49206,-5.39308 23.76491,-5.85028 15.50711,-0.57768 24.65096,1.11199 35.51359,6.56244 31.16063,15.63525 40.8406,55.83615 22.29482,92.59037 -3.77658,7.48447 -6.16245,10.79375 -7.91424,10.9773 -1.37929,0.14453 -6.70076,-1.27027 -11.82549,-3.14401 z"
   id="path814"
   inkscape:connector-curvature="0" /><path
   style="opacity:1;fill:none;fill-opacity:0;fill-rule:evenodd;stroke:none;stroke-width:8.67796612;stroke-linecap:round;stroke-miterlimit:4;stroke-dasharray:none;stroke-opacity:0.33944959;paint-order:stroke fill markers"
   d="m 229.76944,476.75656 c -5.3695,-0.52568 -10.73899,-1.40577 -11.93221,-1.95577 -1.19322,-0.55 -6.28439,-1.79527 -11.31369,-2.76725 -5.02932,-0.972 -11.13101,-2.48645 -13.55932,-3.36545 -2.42833,-0.879 -7.46323,-2.5736 -11.18869,-3.76577 -3.72546,-1.19218 -9.33902,-3.38501 -12.47457,-4.87297 -9.83484,-4.66706 -22.98851,-11.5786 -24.68407,-12.97015 -0.89491,-0.73446 -3.09152,-2.08717 -4.88135,-3.00602 -5.35246,-2.7478 -21.96598,-15.42019 -31.20066,-23.79909 C 96.988962,409.77814 80.160643,389.986 73.707356,379.29271 72.08714,376.60796 68.914945,371.45149 66.658033,367.8339 62.077531,360.49182 53.339638,342.02391 51.29359,335.3605 c -0.732772,-2.38644 -1.72565,-4.83956 -2.206393,-5.45138 -0.480743,-0.6118 -2.167569,-6.46943 -3.748501,-13.01694 -1.580932,-6.54751 -3.290407,-12.88083 -3.798833,-14.07405 -3.918701,-9.19677 -5.140894,-63.63409 -1.838729,-81.89831 2.046321,-11.31816 8.032323,-34.59846 9.315421,-36.22882 0.517216,-0.6572 1.800283,-3.87965 2.851259,-7.16101 3.877554,-12.10649 18.011977,-38.52442 26.648976,-49.80825 7.843359,-10.24697 20.144364,-24.47829 25.54998,-29.55936 3.38493,-3.181711 6.69346,-6.290153 7.35228,-6.907649 7.22911,-6.775711 27.73646,-21.486107 36.34205,-26.068992 2.74526,-1.461983 5.72359,-3.119258 6.6185,-3.682835 3.92943,-2.474572 17.32154,-8.54011 22.77967,-10.317341 3.28135,-1.068448 6.45423,-2.324644 7.05084,-2.791548 0.59661,-0.466904 5.2339,-1.898757 10.30509,-3.181898 5.07118,-1.283141 11.24116,-3.00911 13.71107,-3.835487 9.20315,-3.079187 34.51949,-5.153358 55.17028,-4.520108 18.67593,0.572691 38.77441,2.870089 43.38984,4.959765 1.19322,0.54024 6.56271,2.07262 11.9322,3.405288 5.36949,1.332668 10.25085,2.78232 10.84746,3.221448 0.59661,0.439129 3.76949,1.800503 7.05084,3.025279 7.30393,2.726209 22.63102,10.052009 29.44247,14.072445 6.17534,3.644972 23.14678,15.067752 25.04175,16.854571 0.7607,0.717292 3.81232,3.256709 6.78138,5.643149 10.61058,8.528496 24.73083,23.725003 34.77325,37.423733 3.28028,4.47457 6.33573,8.62373 6.78989,9.22034 0.98513,1.29411 9.43385,16.01614 14.00663,24.40678 1.78829,3.28135 3.86598,7.91864 4.61707,10.30508 0.7511,2.38644 2.00659,5.36388 2.78998,6.61655 2.01896,3.22833 7.91986,23.05585 10.29852,34.60379 4.83193,23.45823 6.04919,48.2466 3.46239,70.50848 -1.71205,14.73378 -4.30533,29.65601 -5.65541,32.54237 -0.55814,1.19322 -2.228,6.31864 -3.7108,11.38983 -2.58461,8.83932 -8.77386,24.79232 -10.94199,28.20339 -0.56883,0.89491 -2.39217,4.31186 -4.05188,7.59322 -11.37483,22.48892 -28.90594,44.5636 -50.00773,62.96835 -6.46487,5.6386 -13.97871,11.7164 -16.69741,13.50623 -2.7187,1.78983 -6.9479,4.58139 -9.39822,6.20347 -2.45033,1.62208 -7.38395,4.48983 -10.96361,6.37279 -3.57967,1.88296 -6.67119,3.85073 -6.87006,4.3728 -0.19887,0.52208 -0.79834,0.94924 -1.33214,0.94924 -0.5338,0 -4.52024,1.64421 -8.85876,3.65377 -4.33851,2.00958 -11.30515,4.7593 -15.48142,6.1105 -4.17627,1.35119 -8.08135,2.80135 -8.67796,3.22258 -0.59661,0.42123 -4.74577,1.57573 -9.22034,2.56558 -4.47458,0.98983 -10.33221,2.33997 -13.01695,3.00029 -15.44059,3.79772 -47.61164,5.16746 -69.9661,2.97893 z m 11.9322,-34.50484 c 24.63743,-5.37443 35.61101,-10.61643 48.07949,-22.96722 7.32483,-7.25571 13.01302,-15.4832 19.39938,-28.05959 1.66627,-3.28135 3.36665,-6.22102 3.7786,-6.53259 0.41194,-0.31157 1.91118,-2.99631 3.33162,-5.9661 4.35307,-9.1011 15.07171,-26.37684 19.24142,-31.01228 5.93916,-6.60254 9.52983,-10.54538 20.14068,-22.11615 31.78317,-34.65843 40.7849,-48.112 48.14069,-71.94891 4.3058,-13.95321 5.43561,-22.53356 5.45218,-41.40702 0.015,-16.98127 -1.65491,-29.88694 -5.75443,-44.47458 -2.37778,-8.46103 -3.71528,-11.87437 -9.56368,-24.40678 -2.58235,-5.53364 -7.47944,-13.86083 -9.66969,-16.4427 -0.93221,-1.09889 -2.45938,-3.21832 -3.3937,-4.70984 -3.09632,-4.94284 -15.27251,-17.49852 -22.50115,-23.20242 -26.96923,-21.280595 -57.50282,-31.538418 -93.90175,-31.546489 -32.16133,-0.0072 -54.23547,7.540281 -86.23729,29.485563 -1.49152,1.022816 -6.12881,4.775416 -10.30508,8.339106 -6.87034,5.86258 -10.91068,9.87222 -18.96102,18.81693 -3.82052,4.24497 -14.12373,19.00294 -14.12373,20.23036 0,0.56549 -0.65943,1.79879 -1.46539,2.74069 -0.80597,0.94189 -2.61434,4.64134 -4.0186,8.22101 -1.40426,3.57966 -2.92238,7.02365 -3.3736,7.65332 -1.56798,2.18807 -4.14501,20.25777 -3.48116,24.40928 0.36733,2.29714 1.59546,5.01609 2.72917,6.04208 4.18982,3.79173 22.10785,5.92925 30.39887,3.62641 4.92296,-1.36736 7.94289,-6.0843 9.05028,-14.13595 4.36624,-31.74633 40.10112,-64.8799 80.26213,-74.41947 11.8022,-2.80342 44.29753,-1.61308 48.81356,1.7881 0.59661,0.44933 3.76949,1.67729 7.05084,2.7288 29.64998,9.50138 57.76993,40.32606 65.18775,71.45787 1.15528,4.84861 2.581,10.31472 3.16825,12.14691 1.362,4.24935 1.38944,24.47713 0.0402,29.62764 -0.56515,2.15735 -2.02996,8.17757 -3.25513,13.37826 -3.38045,14.34967 -11.43226,27.84033 -25.16345,42.16094 -24.20452,25.24351 -33.29217,36.22027 -39.88811,48.17987 -14.39301,26.09708 -30.27625,49.81122 -40.22509,60.0572 -9.43353,9.71529 -22.44209,16.19937 -30.02949,14.96811 -4.31518,-0.70026 -11.88863,-4.23288 -15.67709,-7.31254 -3.95821,-3.21764 -11.8504,-3.96823 -16.97949,-1.61483 -8.48546,3.8934 -12.43155,13.22395 -9.95633,23.5418 1.72503,7.19079 11.07406,17.00109 18.40512,19.31323 2.68474,0.84673 5.36949,1.89295 5.9661,2.32493 2.73583,1.9809 21.85753,2.65797 29.28813,1.03705 z m 76.27209,-186.34884 c 2.23182,-3.86516 6.27168,-12.09697 9.47359,-19.30386 4.07615,-9.1746 5.55516,-32.94354 2.76434,-44.42496 -5.02771,-20.6839 -21.95063,-37.94922 -42.9507,-43.81974 -6.87088,-1.92072 -25.2889,-2.67623 -32.43629,-1.33051 -18.71316,3.52331 -40.04872,19.47993 -48.5699,36.32488 -1.76979,3.49859 -3.3047,8.36041 -3.41089,10.80405 -0.18491,4.2547 -0.0322,4.47674 3.60352,5.24002 2.08814,0.43838 5.99322,1.2909 8.67797,1.89448 9.81815,2.2073 11.22813,1.78971 15.45577,-4.57759 4.43954,-6.68641 15.46346,-16.67586 22.51033,-20.39797 4.18616,-2.2111 6.34897,-2.56865 15.18644,-2.51054 12.64596,0.0831 20.37955,2.60738 26.36356,8.60504 6.67897,6.6942 7.66779,9.46547 8.12991,22.78483 0.44979,12.96377 -1.17678,22.61806 -5.35439,31.78024 -3.20906,7.03797 -6.35942,14.42059 -6.35942,14.90277 0,0.2208 1.58644,0.88353 3.52543,1.47272 1.93898,0.5892 6.6983,2.29518 10.57627,3.79108 3.87796,1.49589 7.81917,2.74525 8.75823,2.77634 0.93907,0.031 2.76437,-1.774 4.05623,-4.01128 z"
   id="path1409"
   inkscape:connector-curvature="0" /></g>
</svg>