<?xml version="1.0" encoding="UTF-8" standalone="no"?>
<!-- Generator: Adobe Illustrator 22.0.1, SVG Export Plug-In . SVG Version: 6.00 Build 0)  -->

<svg
   xmlns:dc="http://purl.org/dc/elements/1.1/"
   xmlns:cc="http://creativecommons.org/ns#"
   xmlns:rdf="http://www.w3.org/1999/02/22-rdf-syntax-ns#"
   xmlns:svg="http://www.w3.org/2000/svg"
   xmlns="http://www.w3.org/2000/svg"
   xmlns:sodipodi="http://sodipodi.sourceforge.net/DTD/sodipodi-0.dtd"
   xmlns:inkscape="http://www.inkscape.org/namespaces/inkscape"
   version="1.1"
   id="Calque_1"
   x="0px"
   y="0px"
   viewBox="0 0 512 512"
   style="enable-background:new 0 0 512 512;"
   xml:space="preserve"
   sodipodi:docname="ic_profiles_sign language.svg"
   inkscape:version="0.92.3 (2405546, 2018-03-11)"
   inkscape:export-filename="C:\Den\Accessibilité\SP4_Société déficiente et IHM Innovantes\Tél mobile Universel\TelMultiprofils\Design graphique\Pictos\all_icons\ic_profiles\ic_profiles_sign languages.png"
   inkscape:export-xdpi="96"
   inkscape:export-ydpi="96"><metadata
   id="metadata23"><rdf:RDF><cc:Work
       rdf:about=""><dc:format>image/svg+xml</dc:format><dc:type
         rdf:resource="http://purl.org/dc/dcmitype/StillImage" /><dc:title>ic_profiles_partially_sighted_1_1</dc:title></cc:Work></rdf:RDF></metadata><defs
   id="defs21" /><sodipodi:namedview
   pagecolor="#ffffff"
   bordercolor="#666666"
   borderopacity="1"
   objecttolerance="10"
   gridtolerance="10"
   guidetolerance="10"
   inkscape:pageopacity="0"
   inkscape:pageshadow="2"
   inkscape:window-width="1920"
   inkscape:window-height="1058"
   id="namedview19"
   showgrid="false"
   inkscape:zoom="0.92187499"
   inkscape:cx="270.50872"
   inkscape:cy="421.32608"
   inkscape:window-x="1592"
   inkscape:window-y="-8"
   inkscape:window-maximized="1"
   inkscape:current-layer="g16" />
<title
   id="title2">ic_profiles_partially_sighted_1_1</title>
<g
   id="g16">
	<path
   d="M256,0C114.6,0,0,114.7,0,256s114.6,256,256,256s256-114.6,256-256S397.4,0,256,0z M342.7,461.3   c-113.4,47.9-244.1-5.2-291.9-118.6S56,98.6,169.4,50.7c27.3-11.5,56.8-17.5,86.6-17.4c123,0,222.8,99.8,222.7,222.8   C478.7,345.6,425.1,426.4,342.7,461.3z"
   id="path4"
   style="fill:#000000;fill-opacity:1" />
	
	
	
	
	
<path
   style="fill:#000000;fill-opacity:1;stroke-width:0.932702"
   d="m 149.82919,269.68891 c -2.33122,-2.28201 4.81718,3.04391 0.50085,-0.0545 -13.1304,-9.42572 -23.37555,-24.21845 -24.6555,-35.59951 -0.96613,-8.59064 2.88487,-35.06648 7.20656,-49.54529 1.14296,-3.82922 5.29416,-13.93247 9.2249,-22.45169 8.5155,-18.45586 11.86767,-26.96042 16.33235,-41.43573 3.98457,-12.91869 9.34491,-25.285596 12.40666,-28.623543 5.3482,-5.830636 15.40772,-3.622993 22.23989,4.880737 6.24359,7.771136 6.72307,16.833236 1.68046,31.760296 -10.56333,31.26941 -11.43956,34.53825 -9.50366,35.45373 2.27028,1.07361 12.70635,0.84612 16.13709,-0.35175 1.91547,-0.66878 5.18322,-2.55221 7.26172,-4.1854 2.0785,-1.63317 6.98157,-5.37011 10.89574,-8.30431 4.09666,-3.07101 10.19701,-8.82562 14.37551,-13.56075 19.01553,-16.95896 53.23201,-49.241361 65.02674,-55.378252 7.88657,-2.196213 16.22503,2.016192 17.89518,9.040227 -12.02898,19.513925 -25.23911,32.274085 -38.57493,48.513965 -15.00476,17.85965 -18.97396,22.97104 -18.94661,24.39873 0.0204,1.06251 1.9771,-0.21103 6.58161,-4.28356 19.6018,-15.01728 39.02771,-28.94105 58.89668,-42.51127 7.957,-5.46704 18.29281,-10.54972 22.55662,-11.09232 1.64292,-0.20906 5.28147,0.2214 8.08568,0.95658 9.85768,2.58437 12.42744,8.74258 7.20944,17.27689 -1.74365,2.85185 -4.17351,4.9122 -10.36255,8.78683 -4.44665,2.78379 -14.14558,10.33013 -21.5532,16.76964 -7.40759,6.43951 -14.48767,12.47631 -15.73352,13.4151 -1.24585,0.9388 -7.46761,6.62056 -13.82614,12.62617 -6.35854,6.00559 -12.26354,11.48083 -13.12223,12.16718 18.11814,-8.62287 39.95626,-21.95698 55.41886,-31.16121 12.23287,-7.29507 17.55194,-10.08025 23.28134,-11.13392 3.57193,-0.65693 4.543,-0.43519 9.00672,2.05657 4.47257,2.49668 5.13197,3.23936 6.21769,7.00302 1.01131,3.50575 0.85064,4.80529 -0.96027,7.76712 -2.38098,3.89425 -12.5827,12.70369 -21.39458,18.47481 -9.31417,6.98832 -54.83793,29.40458 -65.85286,42.95835 -0.59557,0.97409 -0.25325,2.05868 0.95577,3.02813 1.47094,1.17944 3.20353,1.28001 7.90642,0.45886 19.10073,-2.61432 40.26978,-7.9059 55.97445,-12.04597 8.12342,-2.70026 24.3496,-6.07245 29.29036,-0.35552 3.89676,4.50888 0.4864,12.60649 -7.34518,17.44059 -6.73877,4.15953 -13.64696,6.56205 -41.75266,14.52061 -42.64342,12.07509 -44.32804,12.67451 -62.32799,22.17701 -9.13273,4.82133 -29.39647,15.87656 -33.84183,18.41719 -5.75962,3.29178 -38.07553,1.03952 -26.51873,-6.56311 9.92424,-6.52865 50.18943,-37.12298 46.24461,-32.48668 -5.89845,6.93239 14.26291,-21.08305 3.93165,-29.32086 -10.97198,-8.74868 -59.98102,20.46387 -51.24404,15.88057 z"
   id="path863-9"
   inkscape:connector-curvature="0"
   sodipodi:nodetypes="cssssssssssssccccscccsssssscccccscccccsssssssssc" /><path
   style="fill:#000000;fill-opacity:0.00458715;stroke:#000000;stroke-width:18;stroke-miterlimit:4;stroke-dasharray:none;stroke-opacity:1"
   d="m 109.9975,342.47864 c -3.20683,-14.63688 -0.28712,-31.76623 7.02644,-41.22272 5.52043,-7.13794 27.77491,-25.28681 41.64573,-33.9627 25.54336,-26.43758 60.98179,-42.29115 96.57049,-49.59805 8.35478,-1.45975 14.46619,5.906 13.51126,16.2844 -0.87267,9.48433 -7.45831,18.10323 -21.86108,25.32321 -11.41206,5.72077 -33.95558,20.05841 -33.13709,21.85247 0.95984,2.10393 9.13525,7.81301 12.64149,8.82787 7.6385,1.51571 15.79034,0.71731 23.03977,0.65111 20.66048,-1.00117 40.40144,-6.45054 61.33875,-8.22836 33.57312,-2.70211 39.18265,-7.50522 46.78507,-4.51819 9.95483,3.91131 13.28403,16.06404 5.61071,27.38224 -16.23796,7.93407 -47.71447,9.82101 -56.53164,11.65105 -24.53435,5.24772 -35.14165,5.01534 -36.16135,6.1265 -0.75883,0.82695 1.67122,0.95269 8.17372,0.423 16.43753,-1.33906 18.46826,-1.6348 23.53342,-1.31328 16.26428,0.2266 83.5813,-0.87467 83.94628,9.08654 5.6819,7.5411 3.9323,22.53711 -6.29331,26.14531 -30.93802,-0.46575 -58.04055,-4.65033 -85.9433,-1.5777 -9.25776,1.02441 -17.78083,1.89747 -18.94017,1.94014 -1.15933,0.0427 3.07675,0.87162 9.4135,1.84215 27.40771,1.18877 50.30779,3.60288 81.81826,10.06653 17.05836,4.02347 13.37036,17.73454 10.83357,22.43971 -1.77923,3.2608 -7.8355,4.1676 -11.38432,5.41982 -24.1163,0.0926 -50.17693,-2.25771 -77.10793,-5.71469 -18.82317,-2.53925 -33.54747,-3.88176 -35.40097,-3.22772 -1.16715,0.41183 -1.69498,1.43723 -1.47372,2.86291 0.26914,1.7345 1.52564,2.78849 5.73363,4.80968 2.96389,1.42361 7.55154,3.83139 13.56212,5.78706 36.64438,11.92303 16.64659,4.22664 36.64438,11.92303 14.9314,5.74652 21.58044,13.66952 21.20524,20.84274 -0.29591,5.65747 -5.74776,13.01775 -15.28211,12.31257 -8.20394,-0.6068 -17.17477,-3.04114 -44.54687,-12.77853 -41.53034,-14.7741 -41.34262,-17.94843 -62.08403,-20.8034 -10.52369,-1.44854 -23.44066,-3.08889 -28.70435,-3.6452 -13.63986,-1.44154 -38.2404,-10.89698 -48.16236,-18.51159 -14.6586,-15.21498 -16.15206,-30.96815 -20.01923,-48.89791 z"
   id="path863-7-3"
   inkscape:connector-curvature="0"
   sodipodi:nodetypes="csccssscccsccssccccscccccsccssssssscc" /></g>
</svg>