<?xml version="1.0" encoding="UTF-8" standalone="no"?>
<svg
   xmlns:dc="http://purl.org/dc/elements/1.1/"
   xmlns:cc="http://creativecommons.org/ns#"
   xmlns:rdf="http://www.w3.org/1999/02/22-rdf-syntax-ns#"
   xmlns:svg="http://www.w3.org/2000/svg"
   xmlns="http://www.w3.org/2000/svg"
   xmlns:sodipodi="http://sodipodi.sourceforge.net/DTD/sodipodi-0.dtd"
   xmlns:inkscape="http://www.inkscape.org/namespaces/inkscape"
   width="20"
   height="20"
   viewBox="0 0 20 20"
   version="1.1"
   id="svg14"
   sodipodi:docname="profiles_Standard.svg"
   inkscape:export-filename="C:\Users\odce6243\Documents\Den\Accessibilité\SP4_Part1\Tél mobile Universel\TelMultiprofils\Design graphique\Pictos\all_icons\ic_profiles\profiles_Standard.png"
   inkscape:export-xdpi="96"
   inkscape:export-ydpi="96"
   inkscape:version="1.0.1 (c497b03c, 2020-09-10)">
  <metadata
     id="metadata20">
    <rdf:RDF>
      <cc:Work
         rdf:about="">
        <dc:format>image/svg+xml</dc:format>
        <dc:type
           rdf:resource="http://purl.org/dc/dcmitype/StillImage" />
        <dc:title>profiles_Standard</dc:title>
      </cc:Work>
    </rdf:RDF>
  </metadata>
  <defs
     id="defs18" />
  <sodipodi:namedview
     pagecolor="#ffffff"
     bordercolor="#666666"
     borderopacity="1"
     objecttolerance="10"
     gridtolerance="10"
     guidetolerance="10"
     inkscape:pageopacity="0"
     inkscape:pageshadow="2"
     inkscape:window-width="1434"
     inkscape:window-height="807"
     id="namedview16"
     showgrid="false"
     inkscape:zoom="8.7021694"
     inkscape:cx="2.45486"
     inkscape:cy="6.0965005"
     inkscape:window-x="0"
     inkscape:window-y="23"
     inkscape:window-maximized="1"
     inkscape:current-layer="svg14"
     inkscape:document-rotation="0" />
  <title
     id="title2">profiles_Standard</title>
  <g
     id="g12"
     transform="matrix(0.05757582,0,0,0.0528456,-4.5463161,-3.4891382)">
    <path
       style="fill:#000000;stroke-width:0.917588"
       d="m 229.68713,440.80228 c -4.09554,-0.83882 -8.60411,-3.20163 -10.98444,-5.7566 -1.8512,-1.98705 -1.86178,-2.68825 -1.86178,-123.40576 V 190.23256 h -3.67036 -3.67035 v 44.01228 44.01229 l -2.83786,3.23215 c -5.66373,6.45063 -14.36704,6.43465 -20.04907,-0.0368 l -2.87021,-3.26899 0.26175,-57.96866 0.26173,-57.96866 2.15854,-4.77311 c 2.72107,-6.01701 10.37011,-13.34518 17.33778,-16.61046 l 5.27855,-2.47371 39.69446,-0.29804 c 43.6306,-0.32759 52.37563,0.24861 60.24036,3.96923 6.22402,2.94444 14.80109,11.263 17.39357,16.86937 1.92335,4.15935 1.96235,5.24143 2.20279,61.12475 0.23754,55.21437 0.19153,56.97683 -1.56198,59.82275 -5.18995,8.42321 -16.32856,8.61348 -21.83359,0.37295 l -2.08286,-3.11786 v -43.44972 -43.44973 h -3.67035 -3.67035 v 121.37618 c 0,135.85841 0.68044,123.62952 -7.08336,127.30074 -8.2835,3.91696 -20.23199,2.36565 -25.4917,-3.30967 l -2.29328,-2.4745 v -73.73182 c 0,-71.48162 -0.0525,-73.73183 -1.72048,-73.73183 -0.94626,0 -3.01083,0.25807 -4.58794,0.57349 l -2.86746,0.57349 v 72.70979 c 0,72.41417 -0.008,72.71972 -1.92191,75.1531 -3.78894,4.81687 -12.91885,7.60156 -20.1002,6.13072 z M 245.58359,129.322 c -5.61775,-1.83501 -9.79233,-4.67913 -14.41546,-9.82116 -5.47403,-6.08843 -7.33117,-11.80606 -6.80227,-20.94238 0.50265,-8.683006 3.02656,-14.144392 9.20925,-19.927581 6.8245,-6.383521 11.41807,-8.0944 21.80448,-8.121102 7.71141,-0.01982 9.31945,0.273386 13.93824,2.541544 6.50701,3.195399 13.49123,10.673785 15.65851,16.766407 2.01712,5.6705 2.07519,15.196452 0.1275,20.912602 -1.99353,5.8507 -9.27918,13.6433 -15.68669,16.7782 -6.14528,3.0066 -17.52912,3.87279 -23.83356,1.81347 z"
       id="path828"
       inkscape:connector-curvature="0" />
  </g>
</svg>
