<?xml version="1.0" encoding="UTF-8" standalone="no"?>
<svg
   xmlns:dc="http://purl.org/dc/elements/1.1/"
   xmlns:cc="http://creativecommons.org/ns#"
   xmlns:rdf="http://www.w3.org/1999/02/22-rdf-syntax-ns#"
   xmlns:svg="http://www.w3.org/2000/svg"
   xmlns="http://www.w3.org/2000/svg"
   xmlns:sodipodi="http://sodipodi.sourceforge.net/DTD/sodipodi-0.dtd"
   xmlns:inkscape="http://www.inkscape.org/namespaces/inkscape"
   width="512"
   height="512"
   viewBox="0 0 512 512.00001"
   version="1.1"
   id="svg12"
   sodipodi:docname="svplus.svg"
   inkscape:export-filename="C:\Users\odce6243\Documents\Den\Accessibilité\SP4_Part1\Tél mobile Universel\TelMultiprofils\Design graphique\Pictos\all_icons\ic_profiles\ic_profiles_sighted_No.png"
   inkscape:export-xdpi="96"
   inkscape:export-ydpi="96"
   inkscape:version="1.0.1 (c497b03c, 2020-09-10)">
  <metadata
     id="metadata18">
    <rdf:RDF>
      <cc:Work
         rdf:about="">
        <dc:format>image/svg+xml</dc:format>
        <dc:type
           rdf:resource="http://purl.org/dc/dcmitype/StillImage" />
        <dc:title>ic_profiles_partially_sighted_1</dc:title>
      </cc:Work>
    </rdf:RDF>
  </metadata>
  <defs
     id="defs16" />
  <sodipodi:namedview
     pagecolor="#ffffff"
     bordercolor="#666666"
     borderopacity="1"
     objecttolerance="10"
     gridtolerance="10"
     guidetolerance="10"
     inkscape:pageopacity="0"
     inkscape:pageshadow="2"
     inkscape:window-width="1440"
     inkscape:window-height="799"
     id="namedview14"
     showgrid="false"
     inkscape:zoom="0.92187498"
     inkscape:cx="224.58007"
     inkscape:cy="224.64972"
     inkscape:window-x="0"
     inkscape:window-y="23"
     inkscape:window-maximized="1"
     inkscape:current-layer="g10"
     inkscape:document-rotation="0" />
  <title
     id="title2">ic_profiles_partially_sighted_1</title>
  <g
     id="g10"
     transform="translate(-56.406781,-47.728815)">
    <path
       d="m 312.40678,81.008816 c 122.82999,0 222.75,99.900004 222.75,222.700024 0,122.79996 -99.95001,222.73997 -222.75,222.73997 -122.8,0 -222.719999,-99.92001 -222.719999,-222.72 0,-122.79999 99.899999,-222.719994 222.719999,-222.719994 m 0,-33.280001 c -141.41,0 -255.999999,114.640005 -255.999999,255.999995 0,141.35999 114.589999,256 255.999999,256 141.41,0 256,-114.64001 256,-256 0,-141.35999 -114.65001,-255.999995 -256,-255.999995 z"
       id="path4"
       style="stroke-width:1" />
    <path
       style="stroke-width:1.01348"
       d="m 347.15728,301.38982 a 88.479325,83.055591 0 0 1 -88.4793,83.05558 88.479325,83.055591 0 0 1 -88.47935,-83.05558 88.479325,83.055591 0 0 1 88.47935,-83.05559 88.479325,83.055591 0 0 1 88.4793,83.05559 z"
       id="circle6" />
    <path
       d="m 311.2768,188.54882 c 48.21998,-0.57 90.58996,13.61 129.99997,37.67001 24.43001,14.90999 46.24002,33.00001 63.91003,55.63 4.87997,6.26998 8.87999,13.22998 13.34999,19.83 1,1.48998 0.78998,2.67001 0,4.16 -9.21,16.44998 -21.25002,30.62999 -35.09003,43.27001 -34.79999,31.77997 -74.93997,53.61998 -120.86999,64.46998 -18.99998,4.51 -38.34999,5.61998 -57.82999,5.29998 -30.51001,-0.50998 -59.52,-7.62999 -87.34,-19.81999 -33.13,-14.51998 -62.52,-34.5 -87.37,-60.91998 a 168.47,168.47 0 0 1 -23.52,-31.41001 5.2499999,5.25 0 0 1 0,-5.99999 174.29,174.29 0 0 1 32.68,-40.53999 c 34.61,-32.32 74.80001,-54.51002 120.86001,-65.84002 16.75998,-4.15 32.58,-5.81 51.22001,-5.8 z m 83.31997,115.28 a 82.91,82.910003 0 0 0 -165.81,-0.33007 c 0,45.88001 37.00002,83.16 82.6,83.13999 a 83,83.000002 0 0 0 83.21,-82.80999 z m 4.8,68.00002 c -0.16998,0 0,0.0601 0.10991,0 0.64,-0.24986 1.28,-0.52002 1.9,-0.81002 a 247.47,247.47001 0 0 0 46.74,-28.28998 c 14.13001,-10.84003 26.99998,-23.00003 37.73,-37.25002 1.00001,-1.29 1.20999,-2.22 0.07,-3.55 -2.59,-3.00001 -4.91001,-6.30999 -7.55002,-9.29 -21.99999,-24.91 -48.59999,-43.46 -78.61999,-57.35001 a 6.87,6.8700002 0 0 0 -0.80001,-0.29013 q 46.73,68.29001 0.43001,136.86002 z M 223.31676,236.41883 a 3.11,3.1100001 0 0 0 -0.75997,0.23995 c -5.86001,2.99998 -11.83,5.83998 -17.54001,9.10999 -24.7,14.17001 -46.84,31.45001 -64.59,54.00002 -3.12,3.99999 -3.16,3.99999 -0.09,7.89999 22.23,28.05999 50.5,48.29 82.55998,63.6 a 1.15,1.15 0 0 0 0.61004,0.07 q -45.10001,-67.51 -0.19013,-134.91999 z"
       id="path8"
       style="stroke-width:1" />
    <path
       style="stroke-width:1.01348"
       d="m 454.58102,302.64408 c 0,45.87032 -48.05188,84.44659 -88.47933,83.05559 -25.77913,-0.88699 -110.6786,23.4438 -130.55703,1.04223 -19.87847,-22.40158 -41.44772,-122.99316 -41.44772,-145.92834 0,-45.87033 123.13899,-21.22508 172.00475,-21.22508 48.86579,0 88.47933,37.18525 88.47933,83.0556 z"
       id="circle6-9"
       inkscape:connector-curvature="0"
       sodipodi:nodetypes="ssssss" />
  </g>
  <g
     inkscape:groupmode="layer"
     id="layer1"
     inkscape:label="Layer 1"
     style="display:inline"
     transform="translate(-56.406781,-47.728815)">
    <ellipse
       style="opacity:1;fill:#ffffff;fill-opacity:1;fill-rule:evenodd;stroke:none;stroke-width:6.70545;stroke-linecap:round;stroke-miterlimit:4;stroke-dasharray:none;stroke-opacity:0.00847455;paint-order:stroke fill markers"
       id="path862"
       cx="256.18842"
       cy="257.3457"
       rx="10.455959"
       ry="10.001352" />
  </g>
</svg>
