<?xml version="1.0" encoding="UTF-8" standalone="no"?>
<!-- Generator: Adobe Illustrator 22.0.1, SVG Export Plug-In . SVG Version: 6.00 Build 0)  -->

<svg
   xmlns:dc="http://purl.org/dc/elements/1.1/"
   xmlns:cc="http://creativecommons.org/ns#"
   xmlns:rdf="http://www.w3.org/1999/02/22-rdf-syntax-ns#"
   xmlns:svg="http://www.w3.org/2000/svg"
   xmlns="http://www.w3.org/2000/svg"
   xmlns:sodipodi="http://sodipodi.sourceforge.net/DTD/sodipodi-0.dtd"
   xmlns:inkscape="http://www.inkscape.org/namespaces/inkscape"
   version="1.1"
   id="Calque_1"
   x="0px"
   y="0px"
   viewBox="0 0 512 512"
   style="enable-background:new 0 0 512 512;"
   xml:space="preserve"
   sodipodi:docname="ic_profiles_sighted_Z.svg"
   inkscape:version="0.92.3 (2405546, 2018-03-11)"
   inkscape:export-filename="C:\Den\Accessibilité\SP4_Société déficiente et IHM Innovantes\Tél mobile Universel\TelMultiprofils\Design graphique\Pictos\all_icons\ic_profiles\ic_profiles_sighted_Z.png"
   inkscape:export-xdpi="96"
   inkscape:export-ydpi="96"><metadata
   id="metadata19"><rdf:RDF><cc:Work
       rdf:about=""><dc:format>image/svg+xml</dc:format><dc:type
         rdf:resource="http://purl.org/dc/dcmitype/StillImage" /><dc:title>ic_vision_plus_plus</dc:title></cc:Work></rdf:RDF></metadata><defs
   id="defs17" /><sodipodi:namedview
   pagecolor="#ffffff"
   bordercolor="#666666"
   borderopacity="1"
   objecttolerance="10"
   gridtolerance="10"
   guidetolerance="10"
   inkscape:pageopacity="0"
   inkscape:pageshadow="2"
   inkscape:window-width="1920"
   inkscape:window-height="1058"
   id="namedview15"
   showgrid="false"
   inkscape:zoom="0.92187499"
   inkscape:cx="311.08927"
   inkscape:cy="168.01707"
   inkscape:window-x="1592"
   inkscape:window-y="-8"
   inkscape:window-maximized="1"
   inkscape:current-layer="Calque_1" />
<title
   id="title2">ic_vision_plus_plus</title>
<g
   id="g12"
   style="fill:#000000;fill-opacity:1">
	<path
   d="M256,33.3c123,0,222.7,99.7,222.7,222.7S379,478.7,256,478.7S33.3,379,33.3,256C33.4,133.1,133.1,33.4,256,33.3 M256,0   C114.6,0,0,114.6,0,256s114.6,256,256,256s256-114.6,256-256S397.4,0,256,0z"
   id="path4"
   style="fill:#000000;fill-opacity:1" />
	<g
   id="g10"
   style="fill:#000000;fill-opacity:1">
		<path
   d="M258.3,171.5h4.4c28.3,0.7,56.2,7.5,81.7,20c28.4,12.8,53.9,31.4,74.8,54.5c2.8,3.3,5.6,6.7,7.9,10    c-6.2,8.2-13.1,15.8-20.7,22.8c-30.1,27.9-67,47.6-107,57.1c-12.8,3-25.8,4.6-38.9,4.6H256c-40.1-0.2-79.3-11.7-113.2-33.3    c-22-12.7-41.3-29.6-56.8-49.7V256c6.1-8.2,13.1-15.7,20.7-22.5c29-27.1,64.3-46.6,102.7-56.8    C225.4,172.9,241.9,171.2,258.3,171.5 M258.3,140.8c-19-0.3-38,1.8-56.6,6.1C158.1,158,118,179.8,85,210.4    c-14.1,12.5-26,27.3-35.3,43.8c-0.9,1-0.9,2.5,0,3.6c4.1,6.1,7.7,12.5,12,18.2c18.3,23,40.8,42.3,66.3,56.8    c38.3,24.4,82.6,37.5,128,37.9h5.4c15.4,0.1,30.8-1.6,45.8-4.9c45.2-10.7,86.8-32.9,120.8-64.5c14.1-12.5,26-27.2,35.3-43.5    c0.7-1.2,0.7-2.7,0-3.8c-5.7-10.1-12.5-19.5-20.2-28.2c-23.6-26.4-52.5-47.6-84.7-62.2c-29.3-14.3-61.4-22.1-94-22.8H258.3z"
   id="path6"
   style="fill:#000000;fill-opacity:1" />
		<ellipse
   cx="252.74576"
   cy="254.62781"
   id="circle8"
   rx="64.213562"
   ry="65.585709"
   style="stroke-width:0.81733006;fill:#000000;fill-opacity:1" />
	</g>
</g>
<path
   inkscape:connector-curvature="0"
   d="m 187.3,206.7 c 26.6,-37.2 78.4,-45.9 115.6,-19.3 7.5,5.3 14,11.9 19.3,19.3 l 20.1,-20.1 c -0.1,-0.1 -0.2,-0.3 -0.3,-0.4 -0.1,-0.1 0.3,0.1 0.5,0.2 l 20.7,-20.7 c -33.4,-16.9 -69.2,-26.4 -109,-26 -18.6,0 -34.5,1.6 -51.2,5.8 -46.1,11.3 -86.2,33.5 -120.9,65.8 -12.6,11.7 -23.7,25.4 -32.4,40.5 -1.3,1.8 -1.3,4.2 0,6 6.6,11.4 14.5,21.9 23.5,31.5 24.800001,26.4 54.2,46.4 87.4,60.9 4.2,1.8 8.5,3.6 12.9,5.2 l 7.5,-7.5 25.6,-25.6 C 169.3,295.7 160.7,243.9 187.3,206.7 Z M 166,322.3 C 133.9,307 105.7,286.8 83.4,258.7 c -3.1,-3.9 -3,-3.9 0.1,-7.9 17.8,-22.5 39.9,-39.8 64.6,-54 5.7,-3.3 11.7,-6.1 17.5,-9.1 0.2,-0.1 0.5,-0.2 0.8,-0.2 -30,45 -29.9,90 0.2,134.9 -0.2,0 -0.4,0 -0.6,-0.1 z"
   id="path12"
   style="fill:#000000;fill-opacity:1" /><path
   d="m 306.00552,166.80339 -122.7552,175.57283 c 24.0152,-0.95168 94.15338,13.19461 117.51506,8.2129 5.6375,-1.23967 102.44584,-58.86927 108.84244,-70.79342 l 25.57772,-25.6907 c -2.9274,-20.42771 -87.60709,-69.71553 -129.18002,-87.30161 z"
   id="path14"
   inkscape:connector-curvature="0"
   style="stroke-width:1.48014665;fill:#000000;fill-opacity:1"
   sodipodi:nodetypes="cccccc" /></svg>